<?xml version="1.0" encoding="UTF-8"?>
<svg version="1.1" xmlns="http://www.w3.org/2000/svg" width="119" height="114">
<path d="M0 0 C39.27 0 78.54 0 119 0 C119 37.62 119 75.24 119 114 C79.73 114 40.46 114 0 114 C0 76.38 0 38.76 0 0 Z " fill="#F9F9FB" transform="translate(0,0)"/>
<path d="M0 0 C1.875 1 1.875 1 3 3 C3.58606955 7.46529184 3.54014875 10.18977687 1 14 C0.76924898 16.0827517 0.76924898 16.0827517 2 18 C3.11375 18.37125 4.2275 18.7425 5.375 19.125 C8.02302463 20.10917342 8.81741773 20.64431205 10.12890625 23.19921875 C11.53718496 27.75061227 12.59759324 32.21925408 12 37 C9.31512835 39.68487165 7.93523019 39.25769449 4.1875 39.265625 C3.02992187 39.26820312 1.87234375 39.27078125 0.6796875 39.2734375 C-0.53460938 39.26570313 -1.74890625 39.25796875 -3 39.25 C-4.21429688 39.25773437 -5.42859375 39.26546875 -6.6796875 39.2734375 C-8.41605469 39.26957031 -8.41605469 39.26957031 -10.1875 39.265625 C-11.78658203 39.26224121 -11.78658203 39.26224121 -13.41796875 39.25878906 C-16 39 -16 39 -18 37 C-18.08203125 34.35546875 -18.08203125 34.35546875 -17.8125 31.1875 C-17.73644531 30.14980469 -17.66039062 29.11210938 -17.58203125 28.04296875 C-16.94431674 24.70887747 -16.03901305 22.70287777 -14 20 C-11.73276787 18.57751817 -9.54523758 17.91244366 -7 17 C-7.49756092 14.24358584 -7.49756092 14.24358584 -9 12 C-9.203125 10.0390625 -9.203125 10.0390625 -9.25 7.625 C-9.28867187 6.43777344 -9.28867187 6.43777344 -9.328125 5.2265625 C-9 3 -9 3 -7.671875 1.234375 C-5.08887303 -0.67270122 -3.11060214 -0.38882527 0 0 Z " fill="#EAA48F" transform="translate(65,57)"/>
<path d="M0 0 C6.6 0 13.2 0 20 0 C23.375 6.75 23.375 6.75 23.29296875 10.9609375 C23.28172974 12.15662354 23.28172974 12.15662354 23.27026367 13.37646484 C23.24295166 14.36598145 23.21563965 15.35549805 23.1875 16.375 C23.125625 19.55125 23.06375 22.7275 23 26 C14.42 26 5.84 26 -3 26 C-3.061875 22.82375 -3.12375 19.6475 -3.1875 16.375 C-3.21481201 15.3854834 -3.24212402 14.3959668 -3.27026367 13.37646484 C-3.27775635 12.57934082 -3.28524902 11.7822168 -3.29296875 10.9609375 C-3.3086792 10.15446777 -3.32438965 9.34799805 -3.34057617 8.51708984 C-3 6 -3 6 0 0 Z " fill="#BB2727" transform="translate(80,45)"/>
<path d="M0 0 C6.93 0 13.86 0 21 0 C21 10.23 21 20.46 21 31 C14.07 31 7.14 31 0 31 C0 20.77 0 10.54 0 0 Z " fill="#265C89" transform="translate(21,45)"/>
<path d="M0 0 C0.99 0.33 1.98 0.66 3 1 C3 2.65 3 4.3 3 6 C4.98 5.67 6.96 5.34 9 5 C9.93423645 8.01031744 10.04449911 8.86650268 9 12 C10.32 12.66 11.64 13.32 13 14 C12.67 15.32 12.34 16.64 12 18 C11.01 18 10.02 18 9 18 C9.33 20.31 9.66 22.62 10 25 C7.92446352 25.5534764 6.15634036 26 4 26 C3.67 27.65 3.34 29.3 3 31 C2.4225 30.835 1.845 30.67 1.25 30.5 C-2.39005903 29.69109799 -5.47291292 29.99226083 -9 31 C-9.33 29.35 -9.66 27.7 -10 26 C-11.65 26 -13.3 26 -15 26 C-16.04449911 22.86650268 -15.93423645 22.01031744 -15 19 C-16.32 18.34 -17.64 17.68 -19 17 C-18.34 15.68 -17.68 14.36 -17 13 C-16.01 13 -15.02 13 -14 13 C-14.66 10.69 -15.32 8.38 -16 6 C-14.02 5.67 -12.04 5.34 -10 5 C-9.67 3.68 -9.34 2.36 -9 1 C-7.68 1 -6.36 1 -5 1 C-4.67 1.66 -4.34 2.32 -4 3 C-3.01 2.67 -2.02 2.34 -1 2 C-0.67 1.34 -0.34 0.68 0 0 Z " fill="#173344" transform="translate(65,14)"/>
<path d="M0 0 C1.06888524 3.47665095 1.11475767 6.67137478 1.09765625 10.296875 C1.09443359 11.50214844 1.09121094 12.70742188 1.08789062 13.94921875 C1.07951172 15.20347656 1.07113281 16.45773438 1.0625 17.75 C1.05798828 19.01972656 1.05347656 20.28945312 1.04882812 21.59765625 C1.03704566 24.73179095 1.01911036 27.86590142 1 31 C-4.61 31 -10.22 31 -16 31 C-14.50260417 29.30729167 -13.00520833 27.61458333 -11.5078125 25.921875 C-10.0202513 24.02581254 -8.99677564 22.18709995 -8 20 C-9.65 20 -11.3 20 -13 20 C-13 19.01 -13 18.02 -13 17 C-9.535 16.505 -9.535 16.505 -6 16 C-8.64 15.67 -11.28 15.34 -14 15 C-14 13.68 -14 12.36 -14 11 C-10.7 11 -7.4 11 -4 11 C-3.71125 9.55625 -3.4225 8.1125 -3.125 6.625 C-2.25 2.25 -2.25 2.25 0 0 Z " fill="#20517A" transform="translate(41,45)"/>
<path d="M0 0 C6.6 0 13.2 0 20 0 C20.99 1.98 21.98 3.96 23 6 C22.67 6.66 22.34 7.32 22 8 C19.525 7.505 19.525 7.505 17 7 C17 9.97 17 12.94 17 16 C15.02 16 13.04 16 11 16 C11 13.03 11 10.06 11 7 C6.71 7 2.42 7 -2 7 C-2 12.94 -2 18.88 -2 25 C6.25 25 14.5 25 23 25 C23 25.33 23 25.66 23 26 C14.42 26 5.84 26 -3 26 C-3.061875 22.82375 -3.12375 19.6475 -3.1875 16.375 C-3.21481201 15.3854834 -3.24212402 14.3959668 -3.27026367 13.37646484 C-3.27775635 12.57934082 -3.28524902 11.7822168 -3.29296875 10.9609375 C-3.3086792 10.15446777 -3.32438965 9.34799805 -3.34057617 8.51708984 C-3 6 -3 6 0 0 Z " fill="#DD4343" transform="translate(80,45)"/>
<path d="M0 0 C0.33 0 0.66 0 1 0 C1 4.95 1 9.9 1 15 C-5.27 15 -11.54 15 -18 15 C-18 14.67 -18 14.34 -18 14 C-17.11248047 13.74476562 -17.11248047 13.74476562 -16.20703125 13.484375 C-9.62985819 11.4672322 -5.23855664 9.36570866 -1.6875 3.25 C-1.130625 2.1775 -0.57375 1.105 0 0 Z " fill="#A92222" transform="translate(101,55)"/>
<path d="M0 0 C2.875 0.6875 2.875 0.6875 3.875 1.6875 C4.0625 5.125 4.0625 5.125 3.875 8.6875 C1.875 10.6875 1.875 10.6875 -1.125 10.9375 C-4.125 10.6875 -4.125 10.6875 -6.125 8.6875 C-6.4375 5.1875 -6.4375 5.1875 -6.125 1.6875 C-3.125 -0.3125 -3.125 -0.3125 0 0 Z " fill="#EEF0F3" transform="translate(63.125,24.3125)"/>
<path d="M0 0 C6.32578439 3.03110502 10.99286376 7.20431271 15 13 C15.7265625 15.78515625 15.7265625 15.78515625 16 18 C12.42751301 16.54598998 10.79648445 14.7309091 8.5625 11.625 C5.98486451 8.15852469 3.39816945 5.67734562 0 3 C0 2.01 0 1.02 0 0 Z " fill="#E2D4BA" transform="translate(79,23)"/>
<path d="M0 0 C1.98 0 3.96 0 6 0 C6 2.97 6 5.94 6 9 C4.02 9 2.04 9 0 9 C0 6.03 0 3.06 0 0 Z " fill="#C7A68F" transform="translate(91,52)"/>
<path d="M0 0 C0.66 0.33 1.32 0.66 2 1 C2 1.66 2 2.32 2 3 C0.390625 4.515625 0.390625 4.515625 -1.75 6.25 C-4.39698176 8.48076025 -6.54352975 10.49456498 -8.375 13.4375 C-8.91125 14.283125 -9.4475 15.12875 -10 16 C-10.66 16 -11.32 16 -12 16 C-10.43900511 9.06224493 -5.8184277 3.8789518 0 0 Z " fill="#E1D2B7" transform="translate(41,25)"/>
<path d="M0 0 C0.99 0.33 1.98 0.66 3 1 C0.64338778 5.71322444 -2.72071916 8.99934765 -7 12 C-7.66 12 -8.32 12 -9 12 C-8.44397475 8.43217129 -7.31393174 7.07770886 -4.5 4.875 C-1.8119616 2.80112319 -1.8119616 2.80112319 0 0 Z " fill="#E2D4BA" transform="translate(89,74)"/>
<path d="M0 0 C2.97 0 5.94 0 9 0 C9.33 0.99 9.66 1.98 10 3 C6.7 3 3.4 3 0 3 C0 2.01 0 1.02 0 0 Z " fill="#143851" transform="translate(27,56)"/>
<path d="M0 0 C2.96175123 0.61277612 4.38058783 1.25372522 7 3 C7 3.99 7 4.98 7 6 C2.32307692 4.52307692 2.32307692 4.52307692 0.6875 1.875 C0.460625 1.25625 0.23375 0.6375 0 0 Z " fill="#E3D4BB" transform="translate(37,80)"/>
<path d="M0 0 C2.31 0 4.62 0 7 0 C7 0.99 7 1.98 7 3 C4.69 3 2.38 3 0 3 C0 2.01 0 1.02 0 0 Z " fill="#12364C" transform="translate(28,62)"/>
</svg>
